<?xml version="1.0" standalone="no"?>
<!DOCTYPE svg PUBLIC "-//W3C//DTD SVG 20010904//EN"
 "http://www.w3.org/TR/2001/REC-SVG-20010904/DTD/svg10.dtd">
<svg version="1.0" xmlns="http://www.w3.org/2000/svg"
 width="512.000000pt" height="512.000000pt" viewBox="0 0 512.000000 512.000000"
 preserveAspectRatio="xMidYMid meet">
<metadata>
Created by potrace 1.16, written by Peter Selinger 2001-2019
</metadata>
<g transform="translate(0.000000,512.000000) scale(0.100000,-0.100000)"
fill="#000000" stroke="none">
<path d="M0 2560 l0 -2560 2560 0 2560 0 0 2560 0 2560 -2560 0 -2560 0 0
-2560z m3200 2240 l0 -60 190 0 190 0 0 -65 0 -65 130 0 130 0 0 -65 0 -65 65
0 65 0 0 -65 0 -65 125 0 125 0 0 -65 0 -65 65 0 65 0 0 -60 0 -60 65 0 65 0
0 -130 0 -130 65 0 65 0 0 -65 0 -65 60 0 60 0 0 -125 0 -125 65 0 65 0 0
-195 0 -195 65 0 65 0 0 -575 0 -575 -65 0 -65 0 0 -190 0 -190 -65 0 -65 0 0
-130 0 -130 -60 0 -60 0 0 -65 0 -65 -65 0 -65 0 0 -125 0 -125 -65 0 -65 0 0
-65 0 -65 -65 0 -65 0 0 -65 0 -65 -125 0 -125 0 0 -65 0 -65 -515 0 -515 0 0
65 0 65 -65 0 -65 0 0 65 0 65 -60 0 -60 0 0 65 0 65 -65 0 -65 0 0 65 0 65
-65 0 -65 0 0 125 0 125 -65 0 -65 0 0 385 0 385 65 0 65 0 0 130 0 130 65 0
65 0 0 60 0 60 65 0 65 0 0 65 0 65 60 0 60 0 0 130 0 130 65 0 65 0 0 510 0
510 -65 0 -65 0 0 130 0 130 -60 0 -60 0 0 60 0 60 -65 0 -65 0 0 65 0 65 -65
0 -65 0 0 65 0 65 -130 0 -130 0 0 65 0 65 -255 0 -255 0 0 65 0 65 195 0 195
0 0 60 0 60 575 0 575 0 0 -60z m-2430 -765 l0 -65 -65 0 -65 0 0 65 0 65 65
0 65 0 0 -65z m250 -515 l0 -60 65 0 65 0 0 -195 0 -195 65 0 65 0 0 -190 0
-190 65 0 65 0 0 -130 0 -130 65 0 65 0 0 65 0 65 60 0 60 0 0 130 0 130 65 0
65 0 0 125 0 125 65 0 65 0 0 130 0 130 65 0 65 0 0 125 0 125 190 0 190 0 0
-60 0 -60 -65 0 -65 0 0 -130 0 -130 -65 0 -65 0 0 -125 0 -125 -60 0 -60 0 0
-130 0 -130 -65 0 -65 0 0 -190 0 -190 -65 0 -65 0 0 -320 0 -320 65 0 65 0 0
-195 0 -195 65 0 65 0 0 -65 0 -65 60 0 60 0 0 -60 0 -60 -190 0 -190 0 0 125
0 125 -65 0 -65 0 0 65 0 65 -60 0 -60 0 0 130 0 130 -65 0 -65 0 0 125 0 125
-65 0 -65 0 0 130 0 130 -65 0 -65 0 0 190 0 190 -65 0 -65 0 0 130 0 130 -60
0 -60 0 0 190 0 190 -65 0 -65 0 0 190 0 190 125 0 125 0 0 -60z"/>
<path d="M3070 3905 l0 -65 65 0 65 0 0 -130 0 -130 65 0 65 0 0 -190 0 -190
60 0 60 0 0 -125 0 -125 -60 0 -60 0 0 -260 0 -260 -65 0 -65 0 0 -125 0 -125
-65 0 -65 0 0 -130 0 -130 -65 0 -65 0 0 -125 0 -125 -65 0 -65 0 0 -130 0
-130 195 0 195 0 0 65 0 65 65 0 65 0 0 125 0 125 60 0 60 0 0 130 0 130 65 0
65 0 0 190 0 190 65 0 65 0 0 65 0 65 65 0 65 0 0 -190 0 -190 65 0 65 0 0
-195 0 -195 60 0 60 0 0 -190 0 -190 260 0 260 0 0 65 0 65 -65 0 -65 0 0 190
0 190 -65 0 -65 0 0 195 0 195 -65 0 -65 0 0 125 0 125 -65 0 -65 0 0 130 0
130 -60 0 -60 0 0 125 0 125 -65 0 -65 0 0 130 0 130 -65 0 -65 0 0 125 0 125
-65 0 -65 0 0 130 0 130 -65 0 -65 0 0 65 0 65 -190 0 -190 0 0 -65z"/>
</g>
</svg>
